<?xml version="1.0" standalone="no"?>
<!DOCTYPE svg PUBLIC "-//W3C//DTD SVG 20010904//EN"
 "http://www.w3.org/TR/2001/REC-SVG-20010904/DTD/svg10.dtd">
<svg version="1.0" xmlns="http://www.w3.org/2000/svg"
 width="696.000000pt" height="564.000000pt" viewBox="0 0 696.000000 564.000000"
 preserveAspectRatio="xMidYMid meet">

<g transform="translate(0.000000,564.000000) scale(0.100000,-0.100000)"
fill="#000000" stroke="none">
<path d="M870 4860 c-124 -99 -224 -185 -222 -192 2 -7 332 -881 734 -1943
402 -1062 735 -1942 740 -1958 l10 -27 255 0 256 0 243 152 c158 99 246 160
249 173 3 11 82 470 175 1020 94 550 172 1005 174 1010 2 6 6 3 10 -5 6 -17
833 -2251 847 -2290 l9 -25 258 5 257 5 250 149 c138 82 251 150 252 151 2 1
144 876 318 1946 173 1069 318 1956 321 1972 l6 27 -234 0 -234 0 -252 -175
c-225 -158 -252 -179 -257 -208 -3 -17 -66 -437 -140 -932 -173 -1160 -163
-1096 -169 -1102 -3 -3 -9 5 -14 18 -5 13 -204 558 -442 1212 l-433 1187 -213
0 -214 0 -237 -175 c-131 -97 -239 -179 -240 -183 -5 -14 -393 -2192 -393
-2203 0 -7 -3 -10 -6 -7 -3 3 -216 584 -473 1289 l-468 1284 -249 2 -249 2
-225 -179z"/>
</g>
</svg>
